<svg xmlns="http://www.w3.org/2000/svg" viewBox="0 0 1200 630" width="1200" height="630">
  <!-- Background -->
  <rect width="1200" height="630" fill="#FFF6D2"/>
  <!-- Bottom-right blob -->
  <circle cx="1120" cy="580" r="280" fill="#FCEFB3"/>
  <!-- Top-left blob -->
  <circle cx="80" cy="80" r="180" fill="#FEEA27" opacity="0.4"/>

  <!-- Logo mark -->
  <g transform="translate(80, 72)">
    <circle cx="34" cy="28" r="24" stroke="#372F01" stroke-width="6.5" fill="none"/>
    <circle cx="66" cy="28" r="24" stroke="#372F01" stroke-width="6.5" fill="none"/>
    <circle cx="50" cy="28" r="10" fill="#372F01"/>
  </g>
  <!-- Wordmark -->
  <text x="174" y="112" font-family="Georgia, serif" font-weight="700" font-size="52" fill="#372F01" letter-spacing="-1">Veritas</text>

  <!-- Headline -->
  <text x="80" y="240" font-family="Georgia, serif" font-weight="700" font-size="88" fill="#372F01" letter-spacing="-3">Get paid.</text>
  <text x="80" y="338" font-family="Georgia, serif" font-weight="700" font-size="88" fill="#372F01" letter-spacing="-3">Every time.</text>

  <!-- Highlight bar under "No worries" -->
  <rect x="80" y="398" width="486" height="22" fill="#FEEA27" rx="4"/>
  <text x="80" y="428" font-family="Georgia, serif" font-weight="700" font-size="88" fill="#372F01" letter-spacing="-3">No worries.</text>

  <!-- Subtext -->
  <text x="80" y="528" font-family="Arial, sans-serif" font-size="28" fill="#5B5430" font-weight="500">Escrow · Local payouts · Borderless payments</text>

  <!-- Badge -->
  <rect x="80" y="565" width="260" height="44" rx="22" fill="none" stroke="#372F01" stroke-width="2"/>
  <circle cx="109" cy="587" r="6" fill="#0EA868"/>
  <text x="126" y="593" font-family="Arial, sans-serif" font-size="16" fill="#5B5430" font-weight="600" letter-spacing="1">COMING SOON · iOS &amp; ANDROID</text>

  <!-- Phone frame hint -->
  <rect x="860" y="60" width="280" height="510" rx="42" fill="#0E0D08"/>
  <rect x="873" y="72" width="254" height="486" rx="33" fill="#FEEA27"/>
  <!-- Screen content hint -->
  <rect x="893" y="120" width="214" height="8" rx="4" fill="#372F01" opacity="0.15"/>
  <rect x="893" y="140" width="160" height="8" rx="4" fill="#372F01" opacity="0.15"/>
  <rect x="893" y="160" width="190" height="8" rx="4" fill="#372F01" opacity="0.1"/>
  <!-- Mini vault -->
  <rect x="960" y="210" width="80" height="70" rx="12" fill="#372F01" opacity="0.12"/>
  <circle cx="1000" cy="245" r="18" fill="#FEEA27" stroke="#372F01" stroke-width="3"/>
  <!-- CTA buttons -->
  <rect x="893" y="340" width="95" height="36" rx="10" fill="#FEEA27" stroke="#372F01" stroke-width="2"/>
  <text x="940" y="364" font-family="Arial,sans-serif" font-size="13" font-weight="700" fill="#372F01" text-anchor="middle">Log In</text>
  <rect x="1001" y="340" width="106" height="36" rx="10" fill="#FEEA27" stroke="#372F01" stroke-width="2"/>
  <text x="1054" y="364" font-family="Arial,sans-serif" font-size="13" font-weight="700" fill="#372F01" text-anchor="middle">Register</text>
  <!-- Apple sign in -->
  <rect x="893" y="392" width="214" height="36" rx="10" fill="#0E0D08"/>
  <text x="1000" y="416" font-family="Arial,sans-serif" font-size="13" font-weight="600" fill="#fff" text-anchor="middle">Sign In With Apple</text>

  <!-- Domain badge -->
  <rect x="860" y="590" width="280" height="0" rx="0" fill="none"/>
  <text x="1000" y="610" font-family="Arial, sans-serif" font-size="20" fill="#5B5430" font-weight="600" text-anchor="middle">useveritasapp.com</text>
</svg>
